<svg width="300" height="300" viewBox="0 0 300 300" fill="none" xmlns="http://www.w3.org/2000/svg">
<ellipse cx="156" cy="141.5" rx="100" ry="109.5" fill="#D9D9D9"/>
<path d="M134.057 128V119.273H135.114V127.062H139.17V128H134.057ZM143.415 128.136C142.784 128.136 142.24 127.997 141.783 127.719C141.328 127.438 140.977 127.045 140.73 126.543C140.486 126.037 140.364 125.449 140.364 124.778C140.364 124.108 140.486 123.517 140.73 123.006C140.977 122.491 141.321 122.091 141.761 121.804C142.205 121.514 142.722 121.369 143.312 121.369C143.653 121.369 143.99 121.426 144.322 121.54C144.655 121.653 144.957 121.838 145.23 122.094C145.503 122.347 145.72 122.682 145.882 123.099C146.044 123.517 146.125 124.031 146.125 124.642V125.068H141.08V124.199H145.102C145.102 123.83 145.028 123.5 144.881 123.21C144.736 122.92 144.528 122.692 144.259 122.524C143.991 122.357 143.676 122.273 143.312 122.273C142.912 122.273 142.565 122.372 142.273 122.571C141.983 122.767 141.76 123.023 141.604 123.338C141.447 123.653 141.369 123.991 141.369 124.352V124.932C141.369 125.426 141.455 125.845 141.625 126.189C141.798 126.53 142.038 126.79 142.345 126.969C142.652 127.145 143.009 127.233 143.415 127.233C143.679 127.233 143.918 127.196 144.131 127.122C144.347 127.045 144.533 126.932 144.689 126.781C144.845 126.628 144.966 126.437 145.051 126.21L146.023 126.483C145.92 126.812 145.749 127.102 145.507 127.352C145.266 127.599 144.967 127.793 144.612 127.932C144.257 128.068 143.858 128.136 143.415 128.136ZM148.541 119.273V120.04C148.541 120.273 148.499 120.521 148.413 120.786C148.331 121.047 148.209 121.301 148.047 121.548C147.888 121.793 147.695 122.006 147.467 122.188L146.922 121.744C147.101 121.489 147.256 121.223 147.386 120.947C147.52 120.669 147.587 120.372 147.587 120.057V119.273H148.541ZM155.716 128.136C155.171 128.136 154.689 127.999 154.272 127.723C153.854 127.445 153.527 127.053 153.292 126.547C153.056 126.038 152.938 125.438 152.938 124.744C152.938 124.057 153.056 123.46 153.292 122.955C153.527 122.449 153.855 122.058 154.276 121.783C154.696 121.507 155.182 121.369 155.733 121.369C156.159 121.369 156.496 121.44 156.743 121.582C156.993 121.722 157.184 121.881 157.314 122.06C157.448 122.236 157.551 122.381 157.625 122.494H157.711V119.273H158.716V128H157.745V126.994H157.625C157.551 127.114 157.446 127.264 157.31 127.446C157.174 127.625 156.979 127.786 156.726 127.928C156.473 128.067 156.137 128.136 155.716 128.136ZM155.853 127.233C156.256 127.233 156.597 127.128 156.875 126.918C157.154 126.705 157.365 126.411 157.51 126.036C157.655 125.658 157.728 125.222 157.728 124.727C157.728 124.239 157.657 123.811 157.515 123.445C157.373 123.075 157.162 122.788 156.884 122.584C156.605 122.376 156.262 122.273 155.853 122.273C155.426 122.273 155.071 122.382 154.787 122.601C154.506 122.817 154.294 123.111 154.152 123.483C154.013 123.852 153.944 124.267 153.944 124.727C153.944 125.193 154.015 125.616 154.157 125.997C154.301 126.375 154.515 126.676 154.796 126.901C155.08 127.122 155.432 127.233 155.853 127.233ZM164.823 125.324V121.455H165.828V128H164.823V126.892H164.755C164.601 127.224 164.363 127.507 164.039 127.74C163.715 127.97 163.306 128.085 162.811 128.085C162.402 128.085 162.039 127.996 161.721 127.817C161.402 127.635 161.152 127.362 160.971 126.999C160.789 126.632 160.698 126.17 160.698 125.614V121.455H161.703V125.545C161.703 126.023 161.837 126.403 162.104 126.688C162.374 126.972 162.718 127.114 163.135 127.114C163.385 127.114 163.64 127.05 163.898 126.922C164.159 126.794 164.378 126.598 164.554 126.334C164.733 126.07 164.823 125.733 164.823 125.324ZM167.67 128V121.455H168.642V122.477H168.727C168.864 122.128 169.084 121.857 169.388 121.663C169.692 121.467 170.057 121.369 170.483 121.369C170.915 121.369 171.274 121.467 171.561 121.663C171.851 121.857 172.077 122.128 172.239 122.477H172.307C172.474 122.139 172.726 121.871 173.061 121.672C173.396 121.47 173.798 121.369 174.267 121.369C174.852 121.369 175.331 121.553 175.703 121.919C176.075 122.283 176.261 122.849 176.261 123.619V128H175.256V123.619C175.256 123.136 175.124 122.791 174.859 122.584C174.595 122.376 174.284 122.273 173.926 122.273C173.466 122.273 173.109 122.412 172.857 122.69C172.604 122.966 172.477 123.315 172.477 123.739V128H171.455V123.517C171.455 123.145 171.334 122.845 171.092 122.618C170.851 122.388 170.54 122.273 170.159 122.273C169.898 122.273 169.653 122.342 169.426 122.482C169.202 122.621 169.02 122.814 168.881 123.061C168.744 123.305 168.676 123.588 168.676 123.909V128H167.67ZM178.237 128V119.273H179.242V122.494H179.327C179.401 122.381 179.504 122.236 179.634 122.06C179.768 121.881 179.958 121.722 180.205 121.582C180.455 121.44 180.793 121.369 181.219 121.369C181.771 121.369 182.256 121.507 182.677 121.783C183.097 122.058 183.425 122.449 183.661 122.955C183.897 123.46 184.015 124.057 184.015 124.744C184.015 125.438 183.897 126.038 183.661 126.547C183.425 127.053 183.099 127.445 182.681 127.723C182.263 127.999 181.782 128.136 181.237 128.136C180.816 128.136 180.479 128.067 180.227 127.928C179.974 127.786 179.779 127.625 179.643 127.446C179.506 127.264 179.401 127.114 179.327 126.994H179.208V128H178.237ZM179.225 124.727C179.225 125.222 179.298 125.658 179.442 126.036C179.587 126.411 179.799 126.705 180.077 126.918C180.356 127.128 180.697 127.233 181.1 127.233C181.521 127.233 181.871 127.122 182.153 126.901C182.437 126.676 182.65 126.375 182.792 125.997C182.937 125.616 183.009 125.193 183.009 124.727C183.009 124.267 182.938 123.852 182.796 123.483C182.657 123.111 182.445 122.817 182.161 122.601C181.88 122.382 181.526 122.273 181.1 122.273C180.691 122.273 180.347 122.376 180.069 122.584C179.79 122.788 179.58 123.075 179.438 123.445C179.296 123.811 179.225 124.239 179.225 124.727Z" fill="black"/>
</svg>
